<?xml version="1.0" encoding="UTF-8" standalone="no"?>
<!DOCTYPE svg PUBLIC "-//W3C//DTD SVG 1.1//EN" "http://www.w3.org/Graphics/SVG/1.1/DTD/svg11.dtd">
<svg width="100%" height="100%" viewBox="0 0 2363 2363" version="1.1" xmlns="http://www.w3.org/2000/svg" xmlns:xlink="http://www.w3.org/1999/xlink" xml:space="preserve" xmlns:serif="http://www.serif.com/" style="fill-rule:evenodd;clip-rule:evenodd;stroke-linejoin:round;stroke-miterlimit:1.41421;">
    <g id="Notausgang">
        <g id="Hintergrund" transform="matrix(9.43799,0,0,9.43799,-3982.82,-5312.95)">
            <path d="M660,688.076C660,688.076 660,688.076 660,688.076C660,749.988 609.054,800.934 547.143,800.934C485.231,800.934 434.286,749.988 434.286,688.076L434.286,688.076C434.286,626.165 485.231,575.219 547.143,575.219C609.054,575.219 660,626.165 660,688.076C660,688.076 660,688.076 660,688.076Z" style="fill:rgb(200,183,183);fill-rule:nonzero;"/>
        </g>
        <g id="Ring" transform="matrix(9.46971,0,0,9.46971,-7192.8,-3332.63)">
            <path d="M884.299,363.79C821.97,363.79 771.424,414.305 771.424,476.634C771.424,538.963 821.97,589.509 884.299,589.509C946.628,589.509 997.143,538.963 997.143,476.634C997.143,414.305 946.628,363.79 884.299,363.79ZM884.299,379.509C937.95,379.509 981.424,422.983 981.424,476.634C981.424,530.284 937.95,573.79 884.299,573.79C830.649,573.79 787.143,530.284 787.143,476.634C787.143,422.983 830.649,379.509 884.299,379.509Z" style="fill:rgb(44,160,90);fill-rule:nonzero;"/>
        </g>
        <g id="Tür" transform="matrix(4.28244,0,0,4.28244,-3755.02,535.416)">
            <path id="rect3355" d="M1052.16,35.219L1052.16,283.063L1066.44,283.063L1066.44,48.063L1192.16,48.063L1192.16,283.063L1206.44,283.063L1206.44,35.219L1052.16,35.219Z" style="fill:rgb(44,160,90);fill-rule:nonzero;"/>
            <rect id="rect3357" x="1052.14" y="35.219" width="154.286" height="247.857" style="fill:rgb(200,183,183);"/>
            <path id="path3365" d="M1052.16,35.219L1052.16,283.063L1066.44,283.063L1066.44,48.063L1185.22,48.063L1185.22,46.5L1206.44,36.031L1206.44,35.219L1052.16,35.219Z" style="fill:rgb(44,160,90);fill-rule:nonzero;"/>
            <path id="rect3362" d="M1280.36,3.063L1186.43,49.491L1186.43,283.063L1280.36,283.063L1280.36,3.063Z" style="fill:rgb(44,160,90);fill-rule:nonzero;"/>
            <g id="g3378" transform="matrix(1,0,0,1,126.269,24.2437)">
                <path id="path3376" d="M916.337,86.251L916.337,115.009L836.438,115.009L836.438,148.987L916.337,148.987L916.337,177.78C925.042,176.16 1007.87,131.998 1007.87,131.998C1007.87,131.998 924.857,88.506 916.337,86.251Z" style="fill:rgb(200,183,183);fill-rule:nonzero;"/>
                <path id="rect3370" d="M919.981,91.656L919.981,118.781L840.7,118.781L840.7,145.219L919.981,145.219L919.981,172.375C927.658,170.946 1000.7,132 1000.7,132C1000.7,132 927.495,93.645 919.981,91.656Z" style="fill:rgb(44,160,90);fill-rule:nonzero;"/>
            </g>
        </g>
    </g>
</svg>
