<?xml version="1.0" encoding="UTF-8" standalone="no"?>
<!DOCTYPE svg PUBLIC "-//W3C//DTD SVG 1.1//EN" "http://www.w3.org/Graphics/SVG/1.1/DTD/svg11.dtd">
<svg width="100%" height="100%" viewBox="0 0 2363 2363" version="1.1" xmlns="http://www.w3.org/2000/svg" xmlns:xlink="http://www.w3.org/1999/xlink" xml:space="preserve" xmlns:serif="http://www.serif.com/" style="fill-rule:evenodd;clip-rule:evenodd;stroke-linejoin:round;stroke-miterlimit:1.41421;">
    <g id="Thinking" transform="matrix(1,0,0,1,19.6839,-14.5645)">
        <g id="background" transform="matrix(9.27636,0,0,9.27636,-2637.53,-5054.72)">
            <path d="M522.209,673.797C522.209,735.611 471.344,786.476 409.53,786.476C347.717,786.476 296.852,735.611 296.852,673.797C296.852,673.797 296.852,673.797 296.852,673.797C296.852,611.984 347.717,561.119 409.53,561.119C471.344,561.119 522.209,611.984 522.209,673.797C522.209,673.797 522.209,673.797 522.209,673.797Z" style="fill:rgb(95,211,188);fill-rule:nonzero;"/>
        </g>
        <g id="ring" transform="matrix(9.27636,0,0,9.27636,-2637.53,-5054.72)">
            <path d="M409.546,561.123C347.315,561.123 296.859,611.58 296.859,673.81C296.859,736.041 347.315,786.467 409.546,786.467C471.777,786.467 522.202,736.041 522.202,673.81C522.202,611.58 471.777,561.123 409.546,561.123ZM409.546,576.467C463.295,576.467 506.859,620.061 506.859,673.81C506.859,727.559 463.295,771.123 409.546,771.123C355.797,771.123 312.202,727.559 312.202,673.81C312.202,620.061 355.797,576.467 409.546,576.467Z" style="fill:rgb(108,83,83);fill-rule:nonzero;"/>
        </g>
        <g id="cloud" transform="matrix(9.27636,0,0,9.27636,-2637.53,-5054.72)">
            <path d="M406.307,607.943C401.097,608.691 396.659,611.311 393.58,614.948C390.489,613.749 387.017,613.269 383.436,613.784C375.467,614.928 369.317,620.511 367.43,627.416C366.714,627.456 365.978,627.53 365.251,627.634C353.793,629.279 345.653,638.454 347.04,648.118C347.352,650.289 348.121,652.287 349.254,654.082C346.365,657.512 344.882,661.671 345.493,665.925C346.743,674.629 356.206,680.573 367.096,679.839C367.098,680.623 367.129,681.39 367.244,682.186C368.651,691.988 378.293,698.721 388.786,697.214C394.558,696.385 399.368,693.223 402.308,688.927C405.072,695.356 413.431,699.295 422.582,697.981C430.583,696.832 436.831,692.012 438.85,686.174C442.256,687.483 446.141,687.968 450.138,687.395C461.459,685.769 469.442,676.282 467.995,666.204C467.786,664.75 467.416,663.346 466.861,662.042C471.504,659.042 474.134,655.531 473.646,652.133C473.308,649.777 471.494,647.776 468.666,646.25C470.317,644.042 471.128,641.633 470.786,639.252C470.015,633.876 463.723,630.074 455.351,629.156C455.383,628.592 455.378,628.025 455.297,627.459C454.226,620.004 443.516,615.386 431.367,617.13C429.803,617.355 428.304,617.66 426.86,618.062C423.169,611.007 415.018,606.692 406.307,607.943L406.307,607.943Z" style="fill:rgb(108,83,83);fill-rule:nonzero;"/>
        </g>
        <g id="bigger" transform="matrix(9.27636,0,0,9.27636,-2637.53,-5054.72)">
            <path d="M402.197,714.99C402.197,714.993 402.197,714.995 402.197,714.997C402.197,720.4 397.751,724.846 392.348,724.846C386.945,724.846 382.499,720.4 382.499,714.997C382.499,714.995 382.499,714.993 382.5,714.99C382.499,714.988 382.499,714.985 382.499,714.983C382.499,709.58 386.945,705.134 392.348,705.134C397.751,705.134 402.197,709.58 402.197,714.983C402.197,714.985 402.197,714.988 402.197,714.99Z" style="fill:rgb(108,83,83);fill-rule:nonzero;"/>
        </g>
        <g id="small" transform="matrix(9.27636,0,0,9.27636,-2637.53,-5054.72)">
            <path d="M374.873,731.254C374.873,733.886 372.707,736.052 370.075,736.052C367.442,736.052 365.276,733.886 365.276,731.254C365.276,728.621 367.442,726.455 370.075,726.455C372.707,726.455 374.873,728.621 374.873,731.254C374.873,731.254 374.873,731.254 374.873,731.254Z" style="fill:rgb(108,83,83);fill-rule:nonzero;"/>
        </g>
    </g>
</svg>
